<?xml version="1.0" encoding="UTF-8" standalone="no"?>
<svg
   xmlns:dc="http://purl.org/dc/elements/1.1/"
   xmlns:cc="http://creativecommons.org/ns#"
   xmlns:rdf="http://www.w3.org/1999/02/22-rdf-syntax-ns#"
   xmlns:svg="http://www.w3.org/2000/svg"
   xmlns="http://www.w3.org/2000/svg"
   xmlns:sodipodi="http://sodipodi.sourceforge.net/DTD/sodipodi-0.dtd"
   xmlns:inkscape="http://www.inkscape.org/namespaces/inkscape"
   inkscape:export-ydpi="96"
   inkscape:export-xdpi="96"
   inkscape:export-filename="/Users/pia/drawing.png"
   sodipodi:docname="garotoEnxakekaInkscape.svg"
   inkscape:version="1.0rc1 (09960d6, 2020-04-09)"
   id="svg8"
   version="1.1"
   viewBox="0 0 210 297"
   height="297mm"
   width="210mm">
  <defs
     id="defs2" />
  <sodipodi:namedview
     showguides="false"
     inkscape:window-maximized="1"
     inkscape:window-y="23"
     inkscape:window-x="0"
     inkscape:window-height="1035"
     inkscape:window-width="1920"
     showgrid="false"
     inkscape:document-rotation="0"
     inkscape:current-layer="layer1"
     inkscape:document-units="mm"
     inkscape:cy="505.35146"
     inkscape:cx="371.35414"
     inkscape:zoom="1"
     inkscape:pageshadow="2"
     inkscape:pageopacity="0.0"
     borderopacity="1.0"
     bordercolor="#666666"
     pagecolor="#ffffff"
     id="base" />
  <metadata
     id="metadata5">
    <rdf:RDF>
      <cc:Work
         rdf:about="">
        <dc:format>image/svg+xml</dc:format>
        <dc:type
           rdf:resource="http://purl.org/dc/dcmitype/StillImage" />
        <dc:title></dc:title>
      </cc:Work>
    </rdf:RDF>
  </metadata>
  <g
     id="layer1"
     inkscape:groupmode="layer"
     inkscape:label="Layer 1">
    <g
       style="stroke:#000000"
       id="g194">
      <g
         id="g206" />
    </g>
    <g
       inkscape:export-ydpi="61.330002"
       inkscape:export-xdpi="61.330002"
       transform="matrix(1.4811847,0,0,1.4811847,-72.80916,-126.73256)"
       id="g275">
      <path
         style="fill:none;stroke:#000000;stroke-width:0.264583px;stroke-linecap:butt;stroke-linejoin:miter;stroke-opacity:1"
         d="m 65.0596,125.60001 c 3.400784,0.98358 5.153825,0.90691 7.829869,0.64672 3.879948,-0.32316 -1.330439,2.16971 9.732477,3.62813 0.37777,0.0498 0.374693,0.61704 0.790716,0.67469"
         id="path98"
         inkscape:connector-curvature="0"
         sodipodi:nodetypes="ccsc" />
      <path
         style="fill:none;stroke:#000000;stroke-width:0.264583px;stroke-linecap:butt;stroke-linejoin:miter;stroke-opacity:1"
         d="m 60.589582,156.80971 c 1.000078,0.0294 1.806328,-0.0157 2.800173,0.11024 0.874126,0.26778 1.857332,-0.17371 2.063398,0.53847 0.455113,0.95032 1.396891,1.47285 2.333659,1.2938 1.575233,-0.39929 2.498184,-2.08415 2.625426,-2.81343"
         id="path100"
         inkscape:connector-curvature="0"
         sodipodi:nodetypes="ccccc" />
      <path
         style="fill:none;stroke:#000000;stroke-width:0.264583px;stroke-linecap:butt;stroke-linejoin:miter;stroke-opacity:1"
         d="m 105.03959,134.20989 c 1.00063,-0.82644 5.90387,-0.72694 6.67299,-1.38806 1.84409,-1.08278 4.33955,-1.79587 4.30381,-2.53342 -0.0226,-0.46673 -1.68929,-0.25055 -1.21187,-0.80063 0.33377,-0.38457 2.09571,-0.99531 2.77808,-1.65023 1.26524,-1.26841 2.22065,-3.51124 3.54544,-5.49061 0.15857,-0.28289 0.79647,-0.34024 0.98247,-0.61238 1.03779,-1.51846 1.88267,-2.80948 2.83897,-4.55722"
         id="path102"
         inkscape:connector-curvature="0"
         sodipodi:nodetypes="ccssccsc" />
      <path
         style="fill:none;stroke:#000000;stroke-width:0.264583px;stroke-linecap:butt;stroke-linejoin:miter;stroke-opacity:1"
         d="m 109.60364,151.01094 c 0.77659,0.17827 1.37703,0.51774 1.94091,0.97591 1.89134,1.561 2.48372,2.6076 4.93828,2.46356 1.18315,-0.17103 1.28108,-1.72542 2.32174,-1.54254 0.51502,0.16082 0.93281,0.64698 1.34927,0.7158 2.40325,0.11972 6.44935,1.97936 7.44144,0.9922"
         id="path106"
         inkscape:connector-curvature="0"
         sodipodi:nodetypes="cccccc" />
      <path
         style="fill:none;stroke:#000000;stroke-width:0.264583px;stroke-linecap:butt;stroke-linejoin:miter;stroke-opacity:1"
         d="m 84.975347,150.01875 c 0.150601,-0.0503 0.388358,0.0704 0.529167,0 0.199216,-0.1315 0.401164,-0.17508 0.617357,-0.26459 1.976944,-0.50163 4.067243,-1.47141 5.864931,-1.32293 2.256368,0.17199 5.188011,1.40563 7.276042,0.52916 0.358373,-0.14334 0.770836,-0.22701 1.146526,-0.26458 0.26826,-0.0268 0.53047,-0.12852 0.79375,-0.17639 1.3304,-0.33465 2.9232,0.46701 2.38125,1.45521"
         id="path126"
         inkscape:connector-curvature="0"
         sodipodi:nodetypes="cccccscc" />
      <path
         style="fill:none;stroke:#000000;stroke-width:0.264583px;stroke-linecap:butt;stroke-linejoin:miter;stroke-opacity:1"
         d="m 82.957899,136.87777 c 0.195655,-0.47654 -0.101885,-1.09395 0.209468,-1.4993 0.891477,-0.0151 0.62168,0.0275 0.891477,-0.0151 0.297406,-0.0842 0.606937,-0.26247 0.881828,-0.32481 0.457265,-0.0826 0.92399,0.17263 1.181209,0.47221"
         id="path128"
         inkscape:connector-curvature="0"
         sodipodi:nodetypes="ccccc" />
      <path
         style="fill:none;stroke:#000000;stroke-width:0.264583px;stroke-linecap:butt;stroke-linejoin:miter;stroke-opacity:1"
         d="m 93.00104,134.01146 c 0.0294,-0.0588 0.04875,-0.1238 0.08819,-0.17639 0.0088,-0.0118 0.0294,0 0.0441,0 0.01471,-0.0147 0.03257,-0.0268 0.0441,-0.0441 0.06447,-0.0967 0.09775,-0.23004 0.176387,-0.30868 0.08099,-0.081 0.573763,-0.29753 0.705557,-0.26458 0.234669,0.0587 0.634074,0.23144 0.881943,0.13229 0.478584,-0.19144 0.924055,-0.17738 1.367015,0.0441 0.564725,0.44569 0.759005,1.0106 0.57327,1.63159"
         id="path130"
         inkscape:connector-curvature="0"
         sodipodi:nodetypes="cccsssscc" />
      <path
         style="fill:none;stroke:#000000;stroke-width:0.264583px;stroke-linecap:butt;stroke-linejoin:miter;stroke-opacity:1"
         d="m 101.46771,135.51076 c 1.09513,-0.15969 2.1589,0.12045 2.55765,0.70558 0.0628,0.0628 0.21181,0.43664 0.22048,0.44097 0.20231,0.10116 0.66669,-0.12968 0.83785,-0.0441 0.0629,0.0315 0.50934,0.15657 0.52917,0.17639 0.2631,0.26311 0.35277,0.84759 0.35277,1.23472"
         id="path132"
         inkscape:connector-curvature="0"
         sodipodi:nodetypes="cccccc" />
      <path
         style="fill:none;stroke:#000000;stroke-width:0.264583px;stroke-linecap:butt;stroke-linejoin:miter;stroke-opacity:1"
         d="m 105.39236,160.2934 c 0.43689,0.0649 0.97812,0.10625 1.36701,-0.0882 1.4625,-0.8794 1.4358,-3.47051 -0.35276,-4.0349"
         id="path134"
         inkscape:connector-curvature="0"
         sodipodi:nodetypes="ccc" />
      <path
         style="fill:none;stroke:#000000;stroke-width:0.264583px;stroke-linecap:butt;stroke-linejoin:miter;stroke-opacity:1"
         d="m 77.655207,157.0743 c -0.771779,0.15533 -1.0868,0.63991 -1.322909,1.41111 -0.233254,0.71721 0.352785,1.80799 0.352785,1.80799 0.03483,0.10449 0.605123,0.42089 0.705556,0.44097 0.10731,0.0215 0.242464,0 0.352777,0 h 0.132292 -0.08819 0.264583"
         id="path136"
         inkscape:connector-curvature="0"
         sodipodi:nodetypes="ccccsccc" />
      <path
         style="fill:none;stroke:#000000;stroke-width:0.264583px;stroke-linecap:butt;stroke-linejoin:miter;stroke-opacity:1"
         d="m 94.76493,161.08715 c 0.736388,1.32661 2.77272,0.90538 2.910416,0.0441"
         id="path138"
         inkscape:connector-curvature="0"
         sodipodi:nodetypes="cc" />
      <path
         style="fill:none;stroke:#000000;stroke-width:0.264583px;stroke-linecap:butt;stroke-linejoin:miter;stroke-opacity:1"
         d="m 86.474651,165.23229 c -1.292887,0.42353 -1.275709,1.54183 -1.631591,2.46945 -0.05926,0.0593 -0.19291,0.0524 -0.264583,0.0882"
         id="path140"
         inkscape:connector-curvature="0"
         sodipodi:nodetypes="ccc" />
      <path
         style="fill:none;stroke:#000000;stroke-width:0.264583px;stroke-linecap:butt;stroke-linejoin:miter;stroke-opacity:1"
         d="m 77.985937,156.36875 c -0.165366,-4.91684 -0.33073,-10.46207 0.429947,-14.68438"
         id="path144"
         inkscape:connector-curvature="0"
         sodipodi:nodetypes="cc" />
      <path
         style="fill:none;stroke:#000000;stroke-width:0.264583px;stroke-linecap:butt;stroke-linejoin:miter;stroke-opacity:1"
         d="m 106.29635,139.83229 c 0.98117,3.80338 1.10244,8.6651 0.26459,13.89062"
         id="path148"
         inkscape:connector-curvature="0"
         sodipodi:nodetypes="cc" />
      <path
         style="fill:none;stroke:#000000;stroke-width:0.264583px;stroke-linecap:butt;stroke-linejoin:miter;stroke-opacity:1"
         d="m 87.047916,169.13489 c -0.08178,0.0205 -0.184875,-0.0266 -0.264584,0 -0.01479,0.005 -0.01913,0.0261 -0.03307,0.0331 -1.410164,-0.44951 -2.82394,1.85985 -1.058345,2.24886 0.306025,0.15252 0.675754,0.0306 0.959115,0.0661 1.183043,-0.088 2.129966,-0.25673 3.340358,-0.2646 0.492556,-0.0345 1.064234,-0.0848 1.488281,0.0992 1.307446,0.8561 2.478848,0.10057 3.704167,0.76075 3.897486,1.58192 5.423582,-1.29086 1.951301,-2.18283 -0.364806,-0.13728 -0.779355,-0.0577 -1.124479,-0.0992 -0.144301,-0.0241 -0.773031,-0.0711 -0.926042,-0.13229 -0.09465,-0.0379 -0.207557,-0.10226 -0.297656,-0.13229 -0.913738,-0.76923 -2.035608,-0.41824 -3.108854,-0.56227 -2.131301,0.24429 -2.782025,-0.256 -4.630192,0.16547 z"
         id="path150"
         inkscape:connector-curvature="0"
         sodipodi:nodetypes="cccccccccccccc" />
      <path
         style="fill:none;stroke:#000000;stroke-width:0.264583px;stroke-linecap:butt;stroke-linejoin:miter;stroke-opacity:1"
         d="m 86.750262,169.16799 -0.09923,2.31496"
         id="path154"
         inkscape:connector-curvature="0" />
      <path
         style="fill:none;stroke:#000000;stroke-width:0.264583px;stroke-linecap:butt;stroke-linejoin:miter;stroke-opacity:1"
         d="m 88.436978,171.31771 -0.03307,-2.41433"
         id="path156"
         inkscape:connector-curvature="0" />
      <path
         style="fill:none;stroke:#000000;stroke-width:0.264583px;stroke-linecap:butt;stroke-linejoin:miter;stroke-opacity:1"
         d="m 89.991389,171.21835 -0.06613,-2.18268"
         id="path158"
         inkscape:connector-curvature="0" />
      <path
         style="fill:none;stroke:#000000;stroke-width:0.264583px;stroke-linecap:butt;stroke-linejoin:miter;stroke-opacity:1"
         d="m 91.47967,171.31755 0.198438,-2.34813"
         id="path160"
         inkscape:connector-curvature="0" />
      <path
         style="fill:none;stroke:#000000;stroke-width:0.264583px;stroke-linecap:butt;stroke-linejoin:miter;stroke-opacity:1"
         d="m 93.530207,171.8138 -0.03307,-2.8112"
         id="path162"
         inkscape:connector-curvature="0" />
      <path
         style="fill:none;stroke:#000000;stroke-width:0.264583px;stroke-linecap:butt;stroke-linejoin:miter;stroke-opacity:1"
         d="m 97.135137,169.89547 -0.231492,2.57979"
         id="path168"
         inkscape:connector-curvature="0" />
      <path
         style="fill:none;stroke:#000000;stroke-width:0.264583px;stroke-linecap:butt;stroke-linejoin:miter;stroke-opacity:1"
         d="m 95.183837,172.0783 0.119078,-2.42747"
         id="path170"
         inkscape:connector-curvature="0" />
      <path
         style="fill:none;stroke:#000000;stroke-width:0.264583px;stroke-linecap:butt;stroke-linejoin:miter;stroke-opacity:1"
         d="m 85.619166,170.60333 c 0.216672,0.11166 0.456467,0.006 0.661458,-0.0529 0.11503,-0.0329 0.251367,-0.0359 0.370417,-0.0529 0.05261,-0.008 0.391498,-0.0105 0.423333,-0.0265 0.505829,-0.12246 0.941458,-0.0949 1.402292,-0.26456 0.179051,-0.0448 0.393094,-0.0265 0.582083,-0.0265 0.385754,0 0.779211,0.024 1.164167,0 0.185994,-0.0116 0.993864,-0.12104 1.164166,-0.0529 0.08155,0.0326 0.154165,0.1113 0.238125,0.13229 0.46323,-0.0738 0.811656,0.22598 1.243542,0.26461 0.490013,0.0613 0.990018,-0.0811 1.481666,-0.0265 0.203142,0.0226 0.406228,0.0805 0.608542,0.10583 0.254188,0.0318 0.514355,0.0168 0.767292,0.0529 0.30201,0.093 0.601682,0.17087 0.87312,0.31749 0.179596,0.0829 0.390599,0.13498 0.555625,0.23812 0.179636,0.11228 0.338611,0.26459 0.555625,0.26459"
         id="path172"
         inkscape:connector-curvature="0"
         sodipodi:nodetypes="cccccssscccsccsc" />
      <ellipse
         style="fill:#000000;stroke:#000000;stroke-width:0.264583"
         id="path178"
         cx="89.010239"
         cy="153.72292"
         rx="0.68350691"
         ry="0.61736107" />
      <ellipse
         style="fill:#000000;stroke:#000000;stroke-width:0.251943"
         id="path180"
         cx="102.70243"
         cy="153.67882"
         rx="0.71187538"
         ry="0.5795837" />
      <g
         id="g186">
        <path
           sodipodi:nodetypes="ccssccsccsccsscc"
           inkscape:connector-curvature="0"
           id="path176"
           d="m 79.057499,162.85104 c 0.659078,1.49795 1.081262,2.94522 1.799174,4.36562 0.0093,0.0186 0.04541,0.14561 0.05292,0.15875 0.08085,0.1415 0.184605,0.25292 0.264584,0.39688 0.170561,0.30701 0.304741,0.63339 0.449791,0.9525 0.662317,1.23217 1.395211,2.5347 2.301871,3.78353 0.646393,0.59667 1.341588,1.04024 2.090208,1.50813 0.169801,0.10612 0.433244,0.22634 0.608541,0.3175 5.646551,1.91391 10.862344,2.6616 13.705422,-1.00545 0.0839,-0.0746 0.15651,-0.16105 0.23812,-0.23813 0.30586,-0.28886 1.2431,-2.94955 1.50813,-3.28083 1.42557,-1.76722 1.08786,-1.95349 1.66684,-3.14856 0.19932,-0.32616 0.53627,-1.0169 0.60854,-1.4023 0.13444,-0.71704 0.55422,-1.32871 0.68791,-2.03728 0.0893,-0.47311 0.15542,-0.9506 0.21167,-1.42875 -0.0396,-0.19853 0.0431,-0.31905 0.13229,-0.47625"
           style="fill:none;stroke:#000000;stroke-width:0.264583px;stroke-linecap:butt;stroke-linejoin:miter;stroke-opacity:1" />
      </g>
      <g
         id="g202">
        <g
           id="g215">
          <path
             style="fill:#000000;stroke:#000000;stroke-width:0.264583px;stroke-linecap:butt;stroke-linejoin:miter;stroke-opacity:1"
             d="m 83.079166,171.27361 -4.542015,3.52778 c -1.631597,1.67569 -2.866319,3.2191 -4.233333,5.42396 -1.249421,2.51354 -2.322453,5.20347 -3.086804,8.06979 -0.514468,2.27835 -0.720255,4.38032 -0.749653,6.70277 1.265069,1.03127 1.735337,0.66004 2.86632,0.61736 l 1.631595,-0.44097 0.705556,-4.7625 c 0.455672,-2.10197 0.95544,-4.24803 2.028473,-6.17361 l 2.160763,-2.91042 1.411112,-0.92604 c 0.308681,3.10151 0.352778,6.24711 0.396875,9.5691 0.622476,3.87442 -0.68819,8.83576 0.881924,8.81644 l 11.112518,-0.0855 c 3.326472,-0.34943 6.681623,-0.26541 9.877783,-1.27882 0.36688,-1.48827 -0.32262,-3.1889 -0.3017,-4.93624 0.0378,-3.1549 0.0961,-7.35417 0.0961,-7.35417 0,0 1.09514,1.17047 3.90972,4.79388 1.23472,1.41111 2.86632,2.77813 4.36563,3.83646 l 2.99861,1.85208 c 1.77979,-0.81318 2.43331,-2.20658 3.35139,-3.79236 l -4.14514,-2.91041 c -1.69039,-1.29352 -3.1162,-2.67524 -4.27743,-4.40973 l -2.99861,-5.64444 -2.60174,-4.36562 c -0.83521,-1.09852 -1.47377,-2.1454 -2.67229,-2.80459 -2.421605,8.16721 -17.574112,2.74279 -18.185694,-0.4145 z"
             id="path182"
             inkscape:connector-curvature="0"
             sodipodi:nodetypes="cccccccccccccccscccccccccccc" />
          <path
             sodipodi:nodetypes="cccccccc"
             inkscape:connector-curvature="0"
             id="path188"
             d="m 82.85868,198.65798 c 0.0441,4.29213 0.08819,8.58426 0.132292,12.87639 l 0.873125,0.42334 1.640417,0.28222 c 1.109999,-0.007 2.283761,0.1463 3.263193,-0.35278 l 0.529167,-5.11528 c 0.213005,-2.67362 0.448224,-5.21399 0.529163,-8.02569 z"
             style="fill:none;stroke:#000000;stroke-width:0.264583px;stroke-linecap:butt;stroke-linejoin:miter;stroke-opacity:1" />
          <path
             sodipodi:nodetypes="cccccccc"
             inkscape:connector-curvature="0"
             id="path190"
             d="m 83.01743,211.53437 0.126003,1.44905 c -0.0095,1.05583 1.416984,1.47684 2.122955,1.63776 1.676885,0.53012 3.155228,0.11182 3.880554,-0.74966 0.704195,-1.09102 0.524348,-1.14901 -0.352779,-1.98437 v 0 c -0.976627,0.45244 -2.214533,0.43242 -3.263191,0.35278 -0.900228,-0.10426 -1.984375,-0.30868 -2.513542,-0.70556 z"
             style="fill:none;stroke:#000000;stroke-width:0.264583px;stroke-linecap:butt;stroke-linejoin:miter;stroke-opacity:1" />
          <path
             style="fill:none;stroke:#000000;stroke-width:0.264583px;stroke-linecap:butt;stroke-linejoin:miter;stroke-opacity:1"
             d="m 96.043749,198.50364 c 0.496477,0.88372 1.092915,1.67655 1.265849,2.6771 l 0.354724,2.05233 0.496093,4.82865 0.0564,4.20128 c -0.0898,0.96307 1.02778,1.24732 1.954595,1.45373 1.1811,0.18956 2.36457,0.4794 3.40918,0.18725 0.49437,-0.16061 0.84594,-0.40303 1.20283,-0.74444 0.90643,-0.73441 -0.23664,-1.62165 -0.73599,-2.02206 l -0.33072,-0.29766 0.3638,-4.82864 -0.0992,-4.63021 -0.29766,-2.34818 -0.14331,-1.60986 -3.49471,0.81611 z"
             id="path196"
             inkscape:connector-curvature="0"
             sodipodi:nodetypes="cccccccccccccccc" />
        </g>
        <path
           sodipodi:nodetypes="cccccc"
           inkscape:connector-curvature="0"
           id="path198"
           d="m 98.226562,210.6414 c 0.447918,0.25138 0.828547,0.43669 1.223701,0.49597 0.132202,0.0441 0.287843,0.0968 0.429948,0.13229 1.565009,0.12304 2.496859,0.2403 3.902659,-0.36387 0,-0.011 -0.0253,0.008 -0.0331,0 -0.0174,-0.0174 -0.022,-0.0441 -0.033,-0.0662"
           style="fill:none;stroke:#000000;stroke-width:0.264583px;stroke-linecap:butt;stroke-linejoin:miter;stroke-opacity:1" />
      </g>
      <path
         style="fill:none;stroke:#000000;stroke-width:0.264583px;stroke-linecap:butt;stroke-linejoin:miter;stroke-opacity:1"
         d="m 70.465156,195.59322 c -0.169566,0.51972 -0.07223,1.62171 0.256915,1.95465 1.032472,1.02949 1.450533,-1.64747 1.059658,0.23042 -0.07705,0.55511 0.93296,0.67925 0.879478,-0.35299 -0.210056,1.08915 1.165697,1.57574 1.0914,0.4167 0.25752,0.55557 0.387044,0.79398 1.091408,0.72758 0.439079,-0.14636 0.446874,-0.59219 0.396875,-0.99219 -0.0291,-0.23278 0.0033,-0.4896 -0.09922,-0.69453 -0.03498,-0.07 0.08996,-0.006 0.09922,0 0.08917,0.0594 0.193525,0.23397 0.33073,0.16537 0.259519,-0.12976 0.246623,-0.24006 0.198437,-0.52917 -0.0091,-0.63742 -0.573334,-1.00224 -0.804786,-1.34498"
         id="path227"
         inkscape:connector-curvature="0"
         sodipodi:nodetypes="ccccccsscscc" />
      <path
         style="fill:none;stroke:#000000;stroke-width:0.264583px;stroke-linecap:butt;stroke-linejoin:miter;stroke-opacity:1"
         d="m 115.98451,196.28555 c 0.12912,0.0577 0.23973,0.13889 0.34396,0.2204 0.40949,0.24489 0.62444,0.43828 1.05827,0.62617 0.50998,0.15696 0.88789,-0.12839 0.60853,-0.75851 -0.0277,-0.0395 -0.0406,-0.0811 -0.0617,-0.12347 -0.01,-0.0199 -0.0346,-0.0338 -0.0441,-0.0529 -0.004,-0.007 -0.003,-0.003 0.009,-0.009 0.0157,-0.008 0.0829,0.0435 0.097,0.0529 0.16041,0.16969 0.49462,0.18449 0.71441,0.2029 0.20156,0.0183 0.42822,0.0404 0.59972,-0.0882 0.0875,-0.0656 0.0217,-0.0217 0.10584,-0.10584 0.007,-0.007 0.021,-0.009 0.0265,-0.0176 0.11566,-0.4243 -0.0686,-0.62604 -0.41454,-0.78493 -0.0115,-0.006 -0.0115,-0.0146 0,-0.009 0.0267,0.0133 0.0553,0.0349 0.0794,0.0529 0.61314,0.3194 1.23196,0.20196 1.19069,-0.4498 -0.17546,-0.12149 -0.34775,-0.1661 -0.52919,-0.24695 -0.0153,-0.008 -0.032,-0.0143 -0.0441,-0.0265 -0.0106,-0.0106 0.0302,0.003 0.0441,0.009 0.17834,0.0779 0.39304,0.0873 0.56445,0.1058 1.25152,0.0911 1.31355,-1.55284 -0.0353,-1.83457 -0.10439,-0.0197 -0.29286,-0.0247 -0.38805,-0.0265 -0.1264,-0.002 -0.25306,-0.008 -0.37924,0 -0.11607,0.007 -0.22936,0.0277 -0.34396,0.0441 -0.088,0.0126 -0.18438,0 -0.2734,0 h 0.0265 c 0.0241,0 0.0214,5.3e-4 0.0617,-0.009 0.0336,-0.008 0.0706,-0.0233 0.10584,-0.0265 0.0444,-0.004 0.0878,0.001 0.13229,-0.009 1.44105,-0.33299 0.65149,-1.38931 -0.52031,-1.1113 -0.30329,0.0896 -0.46742,-0.0861 -0.75879,-0.0875"
         id="path231"
         inkscape:connector-curvature="0"
         sodipodi:nodetypes="cccccccccssccccccccccccscscsccc" />
    </g>
  </g>
</svg>
